<?xml version="1.0" encoding="UTF-8" standalone="no"?><svg xmlns="http://www.w3.org/2000/svg" xmlns:xlink="http://www.w3.org/1999/xlink" contentScriptType="application/ecmascript" contentStyleType="text/css" height="485px" preserveAspectRatio="none" style="width:273px;height:485px;" version="1.1" viewBox="0 0 273 485" width="273px" zoomAndPan="magnify"><defs><filter height="300%" id="fdt8q8abhap9q" width="300%" x="-1" y="-1"><feGaussianBlur result="blurOut" stdDeviation="2.0"/><feColorMatrix in="blurOut" result="blurOut2" type="matrix" values="0 0 0 0 0 0 0 0 0 0 0 0 0 0 0 0 0 0 .4 0"/><feOffset dx="4.0" dy="4.0" in="blurOut2" result="blurOut3"/><feBlend in="SourceGraphic" in2="blurOut3" mode="normal"/></filter></defs><g><ellipse cx="144" cy="20" fill="#000000" filter="url(#fdt8q8abhap9q)" rx="10" ry="10" style="stroke: none; stroke-width: 1.0;"/><rect fill="#FEFECE" filter="url(#fdt8q8abhap9q)" height="36.3441" rx="12.5" ry="12.5" style="stroke: #A80036; stroke-width: 1.5;" width="124" x="82" y="50"/><text fill="#000000" font-family="sans-serif" font-size="12" lengthAdjust="spacingAndGlyphs" textLength="104" x="92" y="72.8281">Request document</text><rect fill="#FEFECE" filter="url(#fdt8q8abhap9q)" height="36.3441" rx="12.5" ry="12.5" style="stroke: #A80036; stroke-width: 1.5;" width="111" x="88.5" y="106.3441"/><text fill="#000000" font-family="sans-serif" font-size="12" lengthAdjust="spacingAndGlyphs" textLength="91" x="98.5" y="129.1722">Validate request</text><polygon fill="#FEFECE" filter="url(#fdt8q8abhap9q)" points="128.5,162.6882,159.5,162.6882,171.5,174.6882,159.5,186.6882,128.5,186.6882,116.5,174.6882,128.5,162.6882" style="stroke: #A80036; stroke-width: 1.5;"/><text fill="#000000" font-family="sans-serif" font-size="11" lengthAdjust="spacingAndGlyphs" textLength="31" x="128.5" y="178.9562">Valid?</text><text fill="#000000" font-family="sans-serif" font-size="11" lengthAdjust="spacingAndGlyphs" textLength="17" x="99.5" y="171.4653">yes</text><text fill="#000000" font-family="sans-serif" font-size="11" lengthAdjust="spacingAndGlyphs" textLength="14" x="171.5" y="171.4653">no</text><rect fill="#FEFECE" filter="url(#fdt8q8abhap9q)" height="36.3441" rx="12.5" ry="12.5" style="stroke: #A80036; stroke-width: 1.5;" width="132" x="10" y="196.6882"/><text fill="#000000" font-family="sans-serif" font-size="12" lengthAdjust="spacingAndGlyphs" textLength="112" x="20" y="219.5163">Generate document</text><rect fill="#FEFECE" filter="url(#fdt8q8abhap9q)" height="36.3441" rx="12.5" ry="12.5" style="stroke: #A80036; stroke-width: 1.5;" width="103" x="24.5" y="253.0323"/><text fill="#000000" font-family="sans-serif" font-size="12" lengthAdjust="spacingAndGlyphs" textLength="83" x="34.5" y="275.8604">Sign document</text><rect fill="#FEFECE" filter="url(#fdt8q8abhap9q)" height="36.3441" rx="12.5" ry="12.5" style="stroke: #A80036; stroke-width: 1.5;" width="109" x="21.5" y="309.3765"/><text fill="#000000" font-family="sans-serif" font-size="12" lengthAdjust="spacingAndGlyphs" textLength="89" x="31.5" y="332.2045">Store document</text><rect fill="#FEFECE" filter="url(#fdt8q8abhap9q)" height="36.3441" rx="12.5" ry="12.5" style="stroke: #A80036; stroke-width: 1.5;" width="111" x="20.5" y="365.7206"/><text fill="#000000" font-family="sans-serif" font-size="12" lengthAdjust="spacingAndGlyphs" textLength="91" x="30.5" y="388.5487">Notify requester</text><rect fill="#FEFECE" filter="url(#fdt8q8abhap9q)" height="36.3441" rx="12.5" ry="12.5" style="stroke: #A80036; stroke-width: 1.5;" width="100" x="162" y="196.6882"/><text fill="#000000" font-family="sans-serif" font-size="12" lengthAdjust="spacingAndGlyphs" textLength="80" x="172" y="219.5163">Reject request</text><polygon fill="#FEFECE" filter="url(#fdt8q8abhap9q)" points="144,408.0647,156,420.0647,144,432.0647,132,420.0647,144,408.0647" style="stroke: #A80036; stroke-width: 1.5;"/><ellipse cx="144" cy="463.0647" fill="#FFFFFF" filter="url(#fdt8q8abhap9q)" rx="11" ry="11" style="stroke: #000000; stroke-width: 1.0;"/><ellipse cx="144" cy="463.0647" fill="#000000" rx="6" ry="6" style="stroke: #7F7F7F; stroke-width: 1.0;"/><line style="stroke: #A80036; stroke-width: 1.5;" x1="144" x2="144" y1="30" y2="50"/><polygon fill="#A80036" points="140,40,144,50,148,40,144,44" style="stroke: #A80036; stroke-width: 1.0;"/><line style="stroke: #A80036; stroke-width: 1.5;" x1="144" x2="144" y1="86.3441" y2="106.3441"/><polygon fill="#A80036" points="140,96.3441,144,106.3441,148,96.3441,144,100.3441" style="stroke: #A80036; stroke-width: 1.0;"/><line style="stroke: #A80036; stroke-width: 1.5;" x1="76" x2="76" y1="233.0323" y2="253.0323"/><polygon fill="#A80036" points="72,243.0323,76,253.0323,80,243.0323,76,247.0323" style="stroke: #A80036; stroke-width: 1.0;"/><line style="stroke: #A80036; stroke-width: 1.5;" x1="76" x2="76" y1="289.3765" y2="309.3765"/><polygon fill="#A80036" points="72,299.3765,76,309.3765,80,299.3765,76,303.3765" style="stroke: #A80036; stroke-width: 1.0;"/><line style="stroke: #A80036; stroke-width: 1.5;" x1="76" x2="76" y1="345.7206" y2="365.7206"/><polygon fill="#A80036" points="72,355.7206,76,365.7206,80,355.7206,76,359.7206" style="stroke: #A80036; stroke-width: 1.0;"/><line style="stroke: #A80036; stroke-width: 1.5;" x1="116.5" x2="76" y1="174.6882" y2="174.6882"/><line style="stroke: #A80036; stroke-width: 1.5;" x1="76" x2="76" y1="174.6882" y2="196.6882"/><polygon fill="#A80036" points="72,186.6882,76,196.6882,80,186.6882,76,190.6882" style="stroke: #A80036; stroke-width: 1.0;"/><line style="stroke: #A80036; stroke-width: 1.5;" x1="171.5" x2="212" y1="174.6882" y2="174.6882"/><line style="stroke: #A80036; stroke-width: 1.5;" x1="212" x2="212" y1="174.6882" y2="196.6882"/><polygon fill="#A80036" points="208,186.6882,212,196.6882,216,186.6882,212,190.6882" style="stroke: #A80036; stroke-width: 1.0;"/><line style="stroke: #A80036; stroke-width: 1.5;" x1="76" x2="76" y1="402.0647" y2="420.0647"/><line style="stroke: #A80036; stroke-width: 1.5;" x1="76" x2="132" y1="420.0647" y2="420.0647"/><polygon fill="#A80036" points="122,416.0647,132,420.0647,122,424.0647,126,420.0647" style="stroke: #A80036; stroke-width: 1.0;"/><line style="stroke: #A80036; stroke-width: 1.5;" x1="212" x2="212" y1="233.0323" y2="420.0647"/><line style="stroke: #A80036; stroke-width: 1.5;" x1="212" x2="156" y1="420.0647" y2="420.0647"/><polygon fill="#A80036" points="166,416.0647,156,420.0647,166,424.0647,162,420.0647" style="stroke: #A80036; stroke-width: 1.0;"/><line style="stroke: #A80036; stroke-width: 1.5;" x1="144" x2="144" y1="142.6882" y2="162.6882"/><polygon fill="#A80036" points="140,152.6882,144,162.6882,148,152.6882,144,156.6882" style="stroke: #A80036; stroke-width: 1.0;"/><line style="stroke: #A80036; stroke-width: 1.5;" x1="144" x2="144" y1="432.0647" y2="452.0647"/><polygon fill="#A80036" points="140,442.0647,144,452.0647,148,442.0647,144,446.0647" style="stroke: #A80036; stroke-width: 1.0;"/><!--MD5=[6185bcd2f64c94e8f16ad44424104f3b]
@startuml
start
:Request document;
:Validate request;
if (Valid?) then (yes)
  :Generate document;
  :Sign document;
  :Store document;
  :Notify requester;
else (no)
  :Reject request;
endif
stop
@enduml

PlantUML version 1.2020.02(Sun Mar 01 12:22:07 CAT 2020)
(GPL source distribution)
Java Runtime: OpenJDK Runtime Environment
JVM: OpenJDK 64-Bit Server VM
Java Version: 21.0.10+7-Ubuntu-124.04
Operating System: Linux
Default Encoding: UTF-8
Language: en
Country: US
--></g></svg>
