<?xml version="1.0" encoding="UTF-8" standalone="no"?><svg xmlns="http://www.w3.org/2000/svg" xmlns:xlink="http://www.w3.org/1999/xlink" contentScriptType="application/ecmascript" contentStyleType="text/css" height="485px" preserveAspectRatio="none" style="width:254px;height:485px;" version="1.1" viewBox="0 0 254 485" width="254px" zoomAndPan="magnify"><defs><filter height="300%" id="fff38kuvvq46u" width="300%" x="-1" y="-1"><feGaussianBlur result="blurOut" stdDeviation="2.0"/><feColorMatrix in="blurOut" result="blurOut2" type="matrix" values="0 0 0 0 0 0 0 0 0 0 0 0 0 0 0 0 0 0 .4 0"/><feOffset dx="4.0" dy="4.0" in="blurOut2" result="blurOut3"/><feBlend in="SourceGraphic" in2="blurOut3" mode="normal"/></filter></defs><g><ellipse cx="135.25" cy="20" fill="#000000" filter="url(#fff38kuvvq46u)" rx="10" ry="10" style="stroke: none; stroke-width: 1.0;"/><rect fill="#FEFECE" filter="url(#fff38kuvvq46u)" height="36.3441" rx="12.5" ry="12.5" style="stroke: #A80036; stroke-width: 1.5;" width="155" x="57.75" y="50"/><text fill="#000000" font-family="sans-serif" font-size="12" lengthAdjust="spacingAndGlyphs" textLength="135" x="67.75" y="72.8281">Teacher submits grades</text><rect fill="#FEFECE" filter="url(#fff38kuvvq46u)" height="36.3441" rx="12.5" ry="12.5" style="stroke: #A80036; stroke-width: 1.5;" width="129" x="70.75" y="106.3441"/><text fill="#000000" font-family="sans-serif" font-size="12" lengthAdjust="spacingAndGlyphs" textLength="109" x="80.75" y="129.1722">Validate grade data</text><polygon fill="#FEFECE" filter="url(#fff38kuvvq46u)" points="119.75,162.6882,150.75,162.6882,162.75,174.6882,150.75,186.6882,119.75,186.6882,107.75,174.6882,119.75,162.6882" style="stroke: #A80036; stroke-width: 1.5;"/><text fill="#000000" font-family="sans-serif" font-size="11" lengthAdjust="spacingAndGlyphs" textLength="31" x="119.75" y="178.9562">Valid?</text><text fill="#000000" font-family="sans-serif" font-size="11" lengthAdjust="spacingAndGlyphs" textLength="17" x="90.75" y="171.4653">yes</text><text fill="#000000" font-family="sans-serif" font-size="11" lengthAdjust="spacingAndGlyphs" textLength="14" x="162.75" y="171.4653">no</text><rect fill="#FEFECE" filter="url(#fff38kuvvq46u)" height="36.3441" rx="12.5" ry="12.5" style="stroke: #A80036; stroke-width: 1.5;" width="116" x="14" y="196.6882"/><text fill="#000000" font-family="sans-serif" font-size="12" lengthAdjust="spacingAndGlyphs" textLength="96" x="24" y="219.5163">Save to database</text><rect fill="#FEFECE" filter="url(#fff38kuvvq46u)" height="36.3441" rx="12.5" ry="12.5" style="stroke: #A80036; stroke-width: 1.5;" width="124" x="10" y="253.0323"/><text fill="#000000" font-family="sans-serif" font-size="12" lengthAdjust="spacingAndGlyphs" textLength="104" x="20" y="275.8604">Calculate statistics</text><rect fill="#FEFECE" filter="url(#fff38kuvvq46u)" height="36.3441" rx="12.5" ry="12.5" style="stroke: #A80036; stroke-width: 1.5;" width="104" x="20" y="309.3765"/><text fill="#000000" font-family="sans-serif" font-size="12" lengthAdjust="spacingAndGlyphs" textLength="84" x="30" y="332.2045">Notify students</text><rect fill="#FEFECE" filter="url(#fff38kuvvq46u)" height="36.3441" rx="12.5" ry="12.5" style="stroke: #A80036; stroke-width: 1.5;" width="74" x="35" y="365.7206"/><text fill="#000000" font-family="sans-serif" font-size="12" lengthAdjust="spacingAndGlyphs" textLength="54" x="45" y="388.5487">Complete</text><rect fill="#FEFECE" filter="url(#fff38kuvvq46u)" height="36.3441" rx="12.5" ry="12.5" style="stroke: #A80036; stroke-width: 1.5;" width="89" x="154" y="196.6882"/><text fill="#000000" font-family="sans-serif" font-size="12" lengthAdjust="spacingAndGlyphs" textLength="69" x="164" y="219.5163">Return error</text><polygon fill="#FEFECE" filter="url(#fff38kuvvq46u)" points="135.25,408.0647,147.25,420.0647,135.25,432.0647,123.25,420.0647,135.25,408.0647" style="stroke: #A80036; stroke-width: 1.5;"/><ellipse cx="135.25" cy="463.0647" fill="#FFFFFF" filter="url(#fff38kuvvq46u)" rx="11" ry="11" style="stroke: #000000; stroke-width: 1.0;"/><ellipse cx="135.25" cy="463.0647" fill="#000000" rx="6" ry="6" style="stroke: #7F7F7F; stroke-width: 1.0;"/><line style="stroke: #A80036; stroke-width: 1.5;" x1="135.25" x2="135.25" y1="30" y2="50"/><polygon fill="#A80036" points="131.25,40,135.25,50,139.25,40,135.25,44" style="stroke: #A80036; stroke-width: 1.0;"/><line style="stroke: #A80036; stroke-width: 1.5;" x1="135.25" x2="135.25" y1="86.3441" y2="106.3441"/><polygon fill="#A80036" points="131.25,96.3441,135.25,106.3441,139.25,96.3441,135.25,100.3441" style="stroke: #A80036; stroke-width: 1.0;"/><line style="stroke: #A80036; stroke-width: 1.5;" x1="72" x2="72" y1="233.0323" y2="253.0323"/><polygon fill="#A80036" points="68,243.0323,72,253.0323,76,243.0323,72,247.0323" style="stroke: #A80036; stroke-width: 1.0;"/><line style="stroke: #A80036; stroke-width: 1.5;" x1="72" x2="72" y1="289.3765" y2="309.3765"/><polygon fill="#A80036" points="68,299.3765,72,309.3765,76,299.3765,72,303.3765" style="stroke: #A80036; stroke-width: 1.0;"/><line style="stroke: #A80036; stroke-width: 1.5;" x1="72" x2="72" y1="345.7206" y2="365.7206"/><polygon fill="#A80036" points="68,355.7206,72,365.7206,76,355.7206,72,359.7206" style="stroke: #A80036; stroke-width: 1.0;"/><line style="stroke: #A80036; stroke-width: 1.5;" x1="107.75" x2="72" y1="174.6882" y2="174.6882"/><line style="stroke: #A80036; stroke-width: 1.5;" x1="72" x2="72" y1="174.6882" y2="196.6882"/><polygon fill="#A80036" points="68,186.6882,72,196.6882,76,186.6882,72,190.6882" style="stroke: #A80036; stroke-width: 1.0;"/><line style="stroke: #A80036; stroke-width: 1.5;" x1="162.75" x2="198.5" y1="174.6882" y2="174.6882"/><line style="stroke: #A80036; stroke-width: 1.5;" x1="198.5" x2="198.5" y1="174.6882" y2="196.6882"/><polygon fill="#A80036" points="194.5,186.6882,198.5,196.6882,202.5,186.6882,198.5,190.6882" style="stroke: #A80036; stroke-width: 1.0;"/><line style="stroke: #A80036; stroke-width: 1.5;" x1="72" x2="72" y1="402.0647" y2="420.0647"/><line style="stroke: #A80036; stroke-width: 1.5;" x1="72" x2="123.25" y1="420.0647" y2="420.0647"/><polygon fill="#A80036" points="113.25,416.0647,123.25,420.0647,113.25,424.0647,117.25,420.0647" style="stroke: #A80036; stroke-width: 1.0;"/><line style="stroke: #A80036; stroke-width: 1.5;" x1="198.5" x2="198.5" y1="233.0323" y2="420.0647"/><line style="stroke: #A80036; stroke-width: 1.5;" x1="198.5" x2="147.25" y1="420.0647" y2="420.0647"/><polygon fill="#A80036" points="157.25,416.0647,147.25,420.0647,157.25,424.0647,153.25,420.0647" style="stroke: #A80036; stroke-width: 1.0;"/><line style="stroke: #A80036; stroke-width: 1.5;" x1="135.25" x2="135.25" y1="142.6882" y2="162.6882"/><polygon fill="#A80036" points="131.25,152.6882,135.25,162.6882,139.25,152.6882,135.25,156.6882" style="stroke: #A80036; stroke-width: 1.0;"/><line style="stroke: #A80036; stroke-width: 1.5;" x1="135.25" x2="135.25" y1="432.0647" y2="452.0647"/><polygon fill="#A80036" points="131.25,442.0647,135.25,452.0647,139.25,442.0647,135.25,446.0647" style="stroke: #A80036; stroke-width: 1.0;"/><!--MD5=[0935d5d73dbb8a9ee8b0cdd6242d732a]
@startuml
start
:Teacher submits grades;
:Validate grade data;
if (Valid?) then (yes)
  :Save to database;
  :Calculate statistics;
  :Notify students;
  :Complete;
else (no)
  :Return error;
endif
stop
@enduml

PlantUML version 1.2020.02(Sun Mar 01 12:22:07 CAT 2020)
(GPL source distribution)
Java Runtime: OpenJDK Runtime Environment
JVM: OpenJDK 64-Bit Server VM
Java Version: 21.0.10+7-Ubuntu-124.04
Operating System: Linux
Default Encoding: UTF-8
Language: en
Country: US
--></g></svg>
