<?xml version="1.0" encoding="UTF-8" standalone="no"?><svg xmlns="http://www.w3.org/2000/svg" xmlns:xlink="http://www.w3.org/1999/xlink" contentScriptType="application/ecmascript" contentStyleType="text/css" height="485px" preserveAspectRatio="none" style="width:340px;height:485px;" version="1.1" viewBox="0 0 340 485" width="340px" zoomAndPan="magnify"><defs><filter height="300%" id="fu0tufysrf5z4" width="300%" x="-1" y="-1"><feGaussianBlur result="blurOut" stdDeviation="2.0"/><feColorMatrix in="blurOut" result="blurOut2" type="matrix" values="0 0 0 0 0 0 0 0 0 0 0 0 0 0 0 0 0 0 .4 0"/><feOffset dx="4.0" dy="4.0" in="blurOut2" result="blurOut3"/><feBlend in="SourceGraphic" in2="blurOut3" mode="normal"/></filter></defs><g><ellipse cx="168.25" cy="20" fill="#000000" filter="url(#fu0tufysrf5z4)" rx="10" ry="10" style="stroke: none; stroke-width: 1.0;"/><rect fill="#FEFECE" filter="url(#fu0tufysrf5z4)" height="36.3441" rx="12.5" ry="12.5" style="stroke: #A80036; stroke-width: 1.5;" width="162" x="87.25" y="50"/><text fill="#000000" font-family="sans-serif" font-size="12" lengthAdjust="spacingAndGlyphs" textLength="142" x="97.25" y="72.8281">User submits registration</text><rect fill="#FEFECE" filter="url(#fu0tufysrf5z4)" height="36.3441" rx="12.5" ry="12.5" style="stroke: #A80036; stroke-width: 1.5;" width="93" x="121.75" y="106.3441"/><text fill="#000000" font-family="sans-serif" font-size="12" lengthAdjust="spacingAndGlyphs" textLength="73" x="131.75" y="129.1722">Validate data</text><polygon fill="#FEFECE" filter="url(#fu0tufysrf5z4)" points="152.75,162.6882,183.75,162.6882,195.75,174.6882,183.75,186.6882,152.75,186.6882,140.75,174.6882,152.75,162.6882" style="stroke: #A80036; stroke-width: 1.5;"/><text fill="#000000" font-family="sans-serif" font-size="11" lengthAdjust="spacingAndGlyphs" textLength="31" x="152.75" y="178.9562">Valid?</text><text fill="#000000" font-family="sans-serif" font-size="11" lengthAdjust="spacingAndGlyphs" textLength="17" x="123.75" y="171.4653">yes</text><text fill="#000000" font-family="sans-serif" font-size="11" lengthAdjust="spacingAndGlyphs" textLength="14" x="195.75" y="171.4653">no</text><rect fill="#FEFECE" filter="url(#fu0tufysrf5z4)" height="36.3441" rx="12.5" ry="12.5" style="stroke: #A80036; stroke-width: 1.5;" width="133" x="17" y="196.6882"/><text fill="#000000" font-family="sans-serif" font-size="12" lengthAdjust="spacingAndGlyphs" textLength="113" x="27" y="219.5163">Create user account</text><rect fill="#FEFECE" filter="url(#fu0tufysrf5z4)" height="36.3441" rx="12.5" ry="12.5" style="stroke: #A80036; stroke-width: 1.5;" width="82" x="42.5" y="253.0323"/><text fill="#000000" font-family="sans-serif" font-size="12" lengthAdjust="spacingAndGlyphs" textLength="62" x="52.5" y="275.8604">Assign role</text><rect fill="#FEFECE" filter="url(#fu0tufysrf5z4)" height="36.3441" rx="12.5" ry="12.5" style="stroke: #A80036; stroke-width: 1.5;" width="147" x="10" y="309.3765"/><text fill="#000000" font-family="sans-serif" font-size="12" lengthAdjust="spacingAndGlyphs" textLength="127" x="20" y="332.2045">Send verification email</text><rect fill="#FEFECE" filter="url(#fu0tufysrf5z4)" height="36.3441" rx="12.5" ry="12.5" style="stroke: #A80036; stroke-width: 1.5;" width="104" x="31.5" y="365.7206"/><text fill="#000000" font-family="sans-serif" font-size="12" lengthAdjust="spacingAndGlyphs" textLength="84" x="41.5" y="388.5487">Return success</text><rect fill="#FEFECE" filter="url(#fu0tufysrf5z4)" height="36.3441" rx="12.5" ry="12.5" style="stroke: #A80036; stroke-width: 1.5;" width="152" x="177" y="196.6882"/><text fill="#000000" font-family="sans-serif" font-size="12" lengthAdjust="spacingAndGlyphs" textLength="132" x="187" y="219.5163">Return validation errors</text><polygon fill="#FEFECE" filter="url(#fu0tufysrf5z4)" points="168.25,408.0647,180.25,420.0647,168.25,432.0647,156.25,420.0647,168.25,408.0647" style="stroke: #A80036; stroke-width: 1.5;"/><ellipse cx="168.25" cy="463.0647" fill="#FFFFFF" filter="url(#fu0tufysrf5z4)" rx="11" ry="11" style="stroke: #000000; stroke-width: 1.0;"/><ellipse cx="168.25" cy="463.0647" fill="#000000" rx="6" ry="6" style="stroke: #7F7F7F; stroke-width: 1.0;"/><line style="stroke: #A80036; stroke-width: 1.5;" x1="168.25" x2="168.25" y1="30" y2="50"/><polygon fill="#A80036" points="164.25,40,168.25,50,172.25,40,168.25,44" style="stroke: #A80036; stroke-width: 1.0;"/><line style="stroke: #A80036; stroke-width: 1.5;" x1="168.25" x2="168.25" y1="86.3441" y2="106.3441"/><polygon fill="#A80036" points="164.25,96.3441,168.25,106.3441,172.25,96.3441,168.25,100.3441" style="stroke: #A80036; stroke-width: 1.0;"/><line style="stroke: #A80036; stroke-width: 1.5;" x1="83.5" x2="83.5" y1="233.0323" y2="253.0323"/><polygon fill="#A80036" points="79.5,243.0323,83.5,253.0323,87.5,243.0323,83.5,247.0323" style="stroke: #A80036; stroke-width: 1.0;"/><line style="stroke: #A80036; stroke-width: 1.5;" x1="83.5" x2="83.5" y1="289.3765" y2="309.3765"/><polygon fill="#A80036" points="79.5,299.3765,83.5,309.3765,87.5,299.3765,83.5,303.3765" style="stroke: #A80036; stroke-width: 1.0;"/><line style="stroke: #A80036; stroke-width: 1.5;" x1="83.5" x2="83.5" y1="345.7206" y2="365.7206"/><polygon fill="#A80036" points="79.5,355.7206,83.5,365.7206,87.5,355.7206,83.5,359.7206" style="stroke: #A80036; stroke-width: 1.0;"/><line style="stroke: #A80036; stroke-width: 1.5;" x1="140.75" x2="83.5" y1="174.6882" y2="174.6882"/><line style="stroke: #A80036; stroke-width: 1.5;" x1="83.5" x2="83.5" y1="174.6882" y2="196.6882"/><polygon fill="#A80036" points="79.5,186.6882,83.5,196.6882,87.5,186.6882,83.5,190.6882" style="stroke: #A80036; stroke-width: 1.0;"/><line style="stroke: #A80036; stroke-width: 1.5;" x1="195.75" x2="253" y1="174.6882" y2="174.6882"/><line style="stroke: #A80036; stroke-width: 1.5;" x1="253" x2="253" y1="174.6882" y2="196.6882"/><polygon fill="#A80036" points="249,186.6882,253,196.6882,257,186.6882,253,190.6882" style="stroke: #A80036; stroke-width: 1.0;"/><line style="stroke: #A80036; stroke-width: 1.5;" x1="83.5" x2="83.5" y1="402.0647" y2="420.0647"/><line style="stroke: #A80036; stroke-width: 1.5;" x1="83.5" x2="156.25" y1="420.0647" y2="420.0647"/><polygon fill="#A80036" points="146.25,416.0647,156.25,420.0647,146.25,424.0647,150.25,420.0647" style="stroke: #A80036; stroke-width: 1.0;"/><line style="stroke: #A80036; stroke-width: 1.5;" x1="253" x2="253" y1="233.0323" y2="420.0647"/><line style="stroke: #A80036; stroke-width: 1.5;" x1="253" x2="180.25" y1="420.0647" y2="420.0647"/><polygon fill="#A80036" points="190.25,416.0647,180.25,420.0647,190.25,424.0647,186.25,420.0647" style="stroke: #A80036; stroke-width: 1.0;"/><line style="stroke: #A80036; stroke-width: 1.5;" x1="168.25" x2="168.25" y1="142.6882" y2="162.6882"/><polygon fill="#A80036" points="164.25,152.6882,168.25,162.6882,172.25,152.6882,168.25,156.6882" style="stroke: #A80036; stroke-width: 1.0;"/><line style="stroke: #A80036; stroke-width: 1.5;" x1="168.25" x2="168.25" y1="432.0647" y2="452.0647"/><polygon fill="#A80036" points="164.25,442.0647,168.25,452.0647,172.25,442.0647,168.25,446.0647" style="stroke: #A80036; stroke-width: 1.0;"/><!--MD5=[77eb7234dd2a24d37eae619a8e113b17]
@startuml
start
:User submits registration;
:Validate data;
if (Valid?) then (yes)
  :Create user account;
  :Assign role;
  :Send verification email;
  :Return success;
else (no)
  :Return validation errors;
endif
stop
@enduml

PlantUML version 1.2020.02(Sun Mar 01 12:22:07 CAT 2020)
(GPL source distribution)
Java Runtime: OpenJDK Runtime Environment
JVM: OpenJDK 64-Bit Server VM
Java Version: 21.0.10+7-Ubuntu-124.04
Operating System: Linux
Default Encoding: UTF-8
Language: en
Country: US
--></g></svg>
