<?xml version="1.0" encoding="UTF-8" standalone="no"?><svg xmlns="http://www.w3.org/2000/svg" xmlns:xlink="http://www.w3.org/1999/xlink" contentScriptType="application/ecmascript" contentStyleType="text/css" height="389px" preserveAspectRatio="none" style="width:475px;height:389px;" version="1.1" viewBox="0 0 475 389" width="475px" zoomAndPan="magnify"><defs><filter height="300%" id="fxsflztvypob0" width="300%" x="-1" y="-1"><feGaussianBlur result="blurOut" stdDeviation="2.0"/><feColorMatrix in="blurOut" result="blurOut2" type="matrix" values="0 0 0 0 0 0 0 0 0 0 0 0 0 0 0 0 0 0 .4 0"/><feOffset dx="4.0" dy="4.0" in="blurOut2" result="blurOut3"/><feBlend in="SourceGraphic" in2="blurOut3" mode="normal"/></filter></defs><g><line style="stroke: #A80036; stroke-width: 1.0; stroke-dasharray: 5.0,5.0;" x1="38" x2="38" y1="89.0679" y2="299.304"/><line style="stroke: #A80036; stroke-width: 1.0; stroke-dasharray: 5.0,5.0;" x1="176.5" x2="176.5" y1="89.0679" y2="299.304"/><line style="stroke: #A80036; stroke-width: 1.0; stroke-dasharray: 5.0,5.0;" x1="330" x2="330" y1="89.0679" y2="299.304"/><line style="stroke: #A80036; stroke-width: 1.0; stroke-dasharray: 5.0,5.0;" x1="434.5" x2="434.5" y1="89.0679" y2="299.304"/><text fill="#000000" font-family="sans-serif" font-size="14" lengthAdjust="spacingAndGlyphs" textLength="54" x="8" y="84.9659">Teacher</text><ellipse cx="38" cy="13" fill="#FEFECE" filter="url(#fxsflztvypob0)" rx="8" ry="8" style="stroke: #A80036; stroke-width: 2.0;"/><path d="M38,21 L38,48 M25,29 L51,29 M38,48 L25,63 M38,48 L51,63 " fill="none" filter="url(#fxsflztvypob0)" style="stroke: #A80036; stroke-width: 2.0;"/><text fill="#000000" font-family="sans-serif" font-size="14" lengthAdjust="spacingAndGlyphs" textLength="54" x="8" y="313.27">Teacher</text><ellipse cx="38" cy="327.3719" fill="#FEFECE" filter="url(#fxsflztvypob0)" rx="8" ry="8" style="stroke: #A80036; stroke-width: 2.0;"/><path d="M38,335.3719 L38,362.3719 M25,343.3719 L51,343.3719 M38,362.3719 L25,377.3719 M38,362.3719 L51,377.3719 " fill="none" filter="url(#fxsflztvypob0)" style="stroke: #A80036; stroke-width: 2.0;"/><rect fill="#FEFECE" filter="url(#fxsflztvypob0)" height="33.0679" style="stroke: #A80036; stroke-width: 1.5;" width="81" x="134.5" y="51"/><text fill="#000000" font-family="sans-serif" font-size="14" lengthAdjust="spacingAndGlyphs" textLength="67" x="141.5" y="72.9659">Grade API</text><rect fill="#FEFECE" filter="url(#fxsflztvypob0)" height="33.0679" style="stroke: #A80036; stroke-width: 1.5;" width="81" x="134.5" y="298.304"/><text fill="#000000" font-family="sans-serif" font-size="14" lengthAdjust="spacingAndGlyphs" textLength="67" x="141.5" y="320.27">Grade API</text><rect fill="#FEFECE" filter="url(#fxsflztvypob0)" height="33.0679" style="stroke: #A80036; stroke-width: 1.5;" width="108" x="274" y="51"/><text fill="#000000" font-family="sans-serif" font-size="14" lengthAdjust="spacingAndGlyphs" textLength="94" x="281" y="72.9659">Result Service</text><rect fill="#FEFECE" filter="url(#fxsflztvypob0)" height="33.0679" style="stroke: #A80036; stroke-width: 1.5;" width="108" x="274" y="298.304"/><text fill="#000000" font-family="sans-serif" font-size="14" lengthAdjust="spacingAndGlyphs" textLength="94" x="281" y="320.27">Result Service</text><text fill="#000000" font-family="sans-serif" font-size="14" lengthAdjust="spacingAndGlyphs" textLength="63" x="400.5" y="84.9659">Database</text><path d="M417,34 C417,24 435,24 435,24 C435,24 453,24 453,34 L453,60 C453,70 435,70 435,70 C435,70 417,70 417,60 L417,34 " fill="#FEFECE" filter="url(#fxsflztvypob0)" style="stroke: #000000; stroke-width: 1.5;"/><path d="M417,34 C417,44 435,44 435,44 C435,44 453,44 453,34 " fill="none" style="stroke: #000000; stroke-width: 1.5;"/><text fill="#000000" font-family="sans-serif" font-size="14" lengthAdjust="spacingAndGlyphs" textLength="63" x="400.5" y="313.27">Database</text><path d="M417,327.3719 C417,317.3719 435,317.3719 435,317.3719 C435,317.3719 453,317.3719 453,327.3719 L453,353.3719 C453,363.3719 435,363.3719 435,363.3719 C435,363.3719 417,363.3719 417,353.3719 L417,327.3719 " fill="#FEFECE" filter="url(#fxsflztvypob0)" style="stroke: #000000; stroke-width: 1.5;"/><path d="M417,327.3719 C417,337.3719 435,337.3719 435,337.3719 C435,337.3719 453,337.3719 453,327.3719 " fill="none" style="stroke: #000000; stroke-width: 1.5;"/><polygon fill="#A80036" points="165,118.7739,175,122.7739,165,126.7739,169,122.7739" style="stroke: #A80036; stroke-width: 1.0;"/><line style="stroke: #A80036; stroke-width: 1.0;" x1="38" x2="171" y1="122.7739" y2="122.7739"/><text fill="#000000" font-family="sans-serif" font-size="13" font-weight="bold" lengthAdjust="spacingAndGlyphs" textLength="7" x="50" y="116.9649">1</text><text fill="#000000" font-family="sans-serif" font-size="13" lengthAdjust="spacingAndGlyphs" textLength="104" x="61" y="116.9649">POST /api/grades</text><polygon fill="#A80036" points="318,150.4799,328,154.4799,318,158.4799,322,154.4799" style="stroke: #A80036; stroke-width: 1.0;"/><line style="stroke: #A80036; stroke-width: 1.0;" x1="177" x2="324" y1="154.4799" y2="154.4799"/><text fill="#000000" font-family="sans-serif" font-size="13" font-weight="bold" lengthAdjust="spacingAndGlyphs" textLength="7" x="189" y="148.6709">2</text><text fill="#000000" font-family="sans-serif" font-size="13" lengthAdjust="spacingAndGlyphs" textLength="118" x="200" y="148.6709">submit_grade(data)</text><polygon fill="#A80036" points="423,182.186,433,186.186,423,190.186,427,186.186" style="stroke: #A80036; stroke-width: 1.0;"/><line style="stroke: #A80036; stroke-width: 1.0;" x1="330" x2="429" y1="186.186" y2="186.186"/><text fill="#000000" font-family="sans-serif" font-size="13" font-weight="bold" lengthAdjust="spacingAndGlyphs" textLength="7" x="342" y="180.377">3</text><text fill="#000000" font-family="sans-serif" font-size="13" lengthAdjust="spacingAndGlyphs" textLength="70" x="353" y="180.377">save(grade)</text><polygon fill="#A80036" points="341,194.186,331,198.186,341,202.186,337,198.186" style="stroke: #A80036; stroke-width: 1.0;"/><line style="stroke: #A80036; stroke-width: 1.0; stroke-dasharray: 2.0,2.0;" x1="335" x2="434" y1="198.186" y2="198.186"/><text fill="#000000" font-family="sans-serif" font-size="13" font-weight="bold" lengthAdjust="spacingAndGlyphs" textLength="7" x="351" y="213.083">4</text><text fill="#000000" font-family="sans-serif" font-size="13" lengthAdjust="spacingAndGlyphs" textLength="52" x="362" y="213.083">grade_id</text><polygon fill="#A80036" points="188,225.892,178,229.892,188,233.892,184,229.892" style="stroke: #A80036; stroke-width: 1.0;"/><line style="stroke: #A80036; stroke-width: 1.0; stroke-dasharray: 2.0,2.0;" x1="182" x2="329" y1="229.892" y2="229.892"/><text fill="#000000" font-family="sans-serif" font-size="13" font-weight="bold" lengthAdjust="spacingAndGlyphs" textLength="7" x="225.5" y="244.789">5</text><text fill="#000000" font-family="sans-serif" font-size="13" lengthAdjust="spacingAndGlyphs" textLength="45" x="236.5" y="244.789">success</text><polygon fill="#A80036" points="49,257.598,39,261.598,49,265.598,45,261.598" style="stroke: #A80036; stroke-width: 1.0;"/><line style="stroke: #A80036; stroke-width: 1.0; stroke-dasharray: 2.0,2.0;" x1="43" x2="176" y1="261.598" y2="261.598"/><text fill="#000000" font-family="sans-serif" font-size="13" font-weight="bold" lengthAdjust="spacingAndGlyphs" textLength="7" x="81" y="276.495">6</text><text fill="#000000" font-family="sans-serif" font-size="13" lengthAdjust="spacingAndGlyphs" textLength="42" x="92" y="276.495">200 OK</text><!--MD5=[6aa9f31e9ad53d85d4259c046b4a501c]
@startuml
skinparam responseMessageBelowArrow true
skinparam sequenceMessageAlign center
autonumber
actor Teacher
participant "Grade API" as API
participant "Result Service" as Service
database "Database" as DB

Teacher -> API: POST /api/grades
API -> Service: submit_grade(data)
Service -> DB: save(grade)
DB - -> Service: grade_id
Service - -> API: success
API - -> Teacher: 200 OK
@enduml

PlantUML version 1.2020.02(Sun Mar 01 12:22:07 CAT 2020)
(GPL source distribution)
Java Runtime: OpenJDK Runtime Environment
JVM: OpenJDK 64-Bit Server VM
Java Version: 21.0.10+7-Ubuntu-124.04
Operating System: Linux
Default Encoding: UTF-8
Language: en
Country: US
--></g></svg>
