<?xml version="1.0" encoding="UTF-8" standalone="no"?><svg xmlns="http://www.w3.org/2000/svg" xmlns:xlink="http://www.w3.org/1999/xlink" contentScriptType="application/ecmascript" contentStyleType="text/css" height="579px" preserveAspectRatio="none" style="width:1215px;height:579px;" version="1.1" viewBox="0 0 1215 579" width="1215px" zoomAndPan="magnify"><defs><filter height="300%" id="f1vetzzukwc7h0" width="300%" x="-1" y="-1"><feGaussianBlur result="blurOut" stdDeviation="2.0"/><feColorMatrix in="blurOut" result="blurOut2" type="matrix" values="0 0 0 0 0 0 0 0 0 0 0 0 0 0 0 0 0 0 .4 0"/><feOffset dx="4.0" dy="4.0" in="blurOut2" result="blurOut3"/><feBlend in="SourceGraphic" in2="blurOut3" mode="normal"/></filter></defs><g><line style="stroke: #A80036; stroke-width: 1.0; stroke-dasharray: 5.0,5.0;" x1="66" x2="66" y1="89.0679" y2="489.5401"/><line style="stroke: #A80036; stroke-width: 1.0; stroke-dasharray: 5.0,5.0;" x1="333" x2="333" y1="89.0679" y2="489.5401"/><line style="stroke: #A80036; stroke-width: 1.0; stroke-dasharray: 5.0,5.0;" x1="593" x2="593" y1="89.0679" y2="489.5401"/><line style="stroke: #A80036; stroke-width: 1.0; stroke-dasharray: 5.0,5.0;" x1="775.5" x2="775.5" y1="89.0679" y2="489.5401"/><line style="stroke: #A80036; stroke-width: 1.0; stroke-dasharray: 5.0,5.0;" x1="906.5" x2="906.5" y1="89.0679" y2="489.5401"/><line style="stroke: #A80036; stroke-width: 1.0; stroke-dasharray: 5.0,5.0;" x1="1020.5" x2="1020.5" y1="89.0679" y2="489.5401"/><line style="stroke: #A80036; stroke-width: 1.0; stroke-dasharray: 5.0,5.0;" x1="1134.5" x2="1134.5" y1="89.0679" y2="489.5401"/><text fill="#000000" font-family="sans-serif" font-size="14" lengthAdjust="spacingAndGlyphs" textLength="110" x="8" y="84.9659">Collection Agent</text><ellipse cx="66" cy="13" fill="#FEFECE" filter="url(#f1vetzzukwc7h0)" rx="8" ry="8" style="stroke: #A80036; stroke-width: 2.0;"/><path d="M66,21 L66,48 M53,29 L79,29 M66,48 L53,63 M66,48 L79,63 " fill="none" filter="url(#f1vetzzukwc7h0)" style="stroke: #A80036; stroke-width: 2.0;"/><text fill="#000000" font-family="sans-serif" font-size="14" lengthAdjust="spacingAndGlyphs" textLength="110" x="8" y="503.5061">Collection Agent</text><ellipse cx="66" cy="517.608" fill="#FEFECE" filter="url(#f1vetzzukwc7h0)" rx="8" ry="8" style="stroke: #A80036; stroke-width: 2.0;"/><path d="M66,525.608 L66,552.608 M53,533.608 L79,533.608 M66,552.608 L53,567.608 M66,552.608 L79,567.608 " fill="none" filter="url(#f1vetzzukwc7h0)" style="stroke: #A80036; stroke-width: 2.0;"/><rect fill="#FEFECE" filter="url(#f1vetzzukwc7h0)" height="33.0679" style="stroke: #A80036; stroke-width: 1.5;" width="184" x="239" y="51"/><text fill="#000000" font-family="sans-serif" font-size="14" lengthAdjust="spacingAndGlyphs" textLength="170" x="246" y="72.9659">Dashboard Collection API</text><rect fill="#FEFECE" filter="url(#f1vetzzukwc7h0)" height="33.0679" style="stroke: #A80036; stroke-width: 1.5;" width="184" x="239" y="488.5401"/><text fill="#000000" font-family="sans-serif" font-size="14" lengthAdjust="spacingAndGlyphs" textLength="170" x="246" y="510.5061">Dashboard Collection API</text><rect fill="#FEFECE" filter="url(#f1vetzzukwc7h0)" height="33.0679" style="stroke: #A80036; stroke-width: 1.5;" width="124" x="529" y="51"/><text fill="#000000" font-family="sans-serif" font-size="14" lengthAdjust="spacingAndGlyphs" textLength="110" x="536" y="72.9659">Payment Service</text><rect fill="#FEFECE" filter="url(#f1vetzzukwc7h0)" height="33.0679" style="stroke: #A80036; stroke-width: 1.5;" width="124" x="529" y="488.5401"/><text fill="#000000" font-family="sans-serif" font-size="14" lengthAdjust="spacingAndGlyphs" textLength="110" x="536" y="510.5061">Payment Service</text><text fill="#000000" font-family="sans-serif" font-size="14" lengthAdjust="spacingAndGlyphs" textLength="87" x="729.5" y="84.9659">PaymentPlan</text><path d="M758,34 C758,24 776,24 776,24 C776,24 794,24 794,34 L794,60 C794,70 776,70 776,70 C776,70 758,70 758,60 L758,34 " fill="#FEFECE" filter="url(#f1vetzzukwc7h0)" style="stroke: #000000; stroke-width: 1.5;"/><path d="M758,34 C758,44 776,44 776,44 C776,44 794,44 794,34 " fill="none" style="stroke: #000000; stroke-width: 1.5;"/><text fill="#000000" font-family="sans-serif" font-size="14" lengthAdjust="spacingAndGlyphs" textLength="87" x="729.5" y="503.5061">PaymentPlan</text><path d="M758,517.608 C758,507.608 776,507.608 776,507.608 C776,507.608 794,507.608 794,517.608 L794,543.608 C794,553.608 776,553.608 776,553.608 C776,553.608 758,553.608 758,543.608 L758,517.608 " fill="#FEFECE" filter="url(#f1vetzzukwc7h0)" style="stroke: #000000; stroke-width: 1.5;"/><path d="M758,517.608 C758,527.608 776,527.608 776,527.608 C776,527.608 794,527.608 794,517.608 " fill="none" style="stroke: #000000; stroke-width: 1.5;"/><text fill="#000000" font-family="sans-serif" font-size="14" lengthAdjust="spacingAndGlyphs" textLength="143" x="832.5" y="84.9659">PaymentInstallement</text><path d="M889,34 C889,24 907,24 907,24 C907,24 925,24 925,34 L925,60 C925,70 907,70 907,70 C907,70 889,70 889,60 L889,34 " fill="#FEFECE" filter="url(#f1vetzzukwc7h0)" style="stroke: #000000; stroke-width: 1.5;"/><path d="M889,34 C889,44 907,44 907,44 C907,44 925,44 925,34 " fill="none" style="stroke: #000000; stroke-width: 1.5;"/><text fill="#000000" font-family="sans-serif" font-size="14" lengthAdjust="spacingAndGlyphs" textLength="143" x="832.5" y="503.5061">PaymentInstallement</text><path d="M889,517.608 C889,507.608 907,507.608 907,507.608 C907,507.608 925,507.608 925,517.608 L925,543.608 C925,553.608 907,553.608 907,553.608 C907,553.608 889,553.608 889,543.608 L889,517.608 " fill="#FEFECE" filter="url(#f1vetzzukwc7h0)" style="stroke: #000000; stroke-width: 1.5;"/><path d="M889,517.608 C889,527.608 907,527.608 907,527.608 C907,527.608 925,527.608 925,517.608 " fill="none" style="stroke: #000000; stroke-width: 1.5;"/><text fill="#000000" font-family="sans-serif" font-size="14" lengthAdjust="spacingAndGlyphs" textLength="53" x="991.5" y="84.9659">Student</text><path d="M1003,34 C1003,24 1021,24 1021,24 C1021,24 1039,24 1039,34 L1039,60 C1039,70 1021,70 1021,70 C1021,70 1003,70 1003,60 L1003,34 " fill="#FEFECE" filter="url(#f1vetzzukwc7h0)" style="stroke: #000000; stroke-width: 1.5;"/><path d="M1003,34 C1003,44 1021,44 1021,44 C1021,44 1039,44 1039,34 " fill="none" style="stroke: #000000; stroke-width: 1.5;"/><text fill="#000000" font-family="sans-serif" font-size="14" lengthAdjust="spacingAndGlyphs" textLength="53" x="991.5" y="503.5061">Student</text><path d="M1003,517.608 C1003,507.608 1021,507.608 1021,507.608 C1021,507.608 1039,507.608 1039,517.608 L1039,543.608 C1039,553.608 1021,553.608 1021,553.608 C1021,553.608 1003,553.608 1003,543.608 L1003,517.608 " fill="#FEFECE" filter="url(#f1vetzzukwc7h0)" style="stroke: #000000; stroke-width: 1.5;"/><path d="M1003,517.608 C1003,527.608 1021,527.608 1021,527.608 C1021,527.608 1039,527.608 1039,517.608 " fill="none" style="stroke: #000000; stroke-width: 1.5;"/><rect fill="#FEFECE" filter="url(#f1vetzzukwc7h0)" height="33.0679" style="stroke: #A80036; stroke-width: 1.5;" width="144" x="1060.5" y="51"/><text fill="#000000" font-family="sans-serif" font-size="14" lengthAdjust="spacingAndGlyphs" textLength="130" x="1067.5" y="72.9659">Notification Service</text><rect fill="#FEFECE" filter="url(#f1vetzzukwc7h0)" height="33.0679" style="stroke: #A80036; stroke-width: 1.5;" width="144" x="1060.5" y="488.5401"/><text fill="#000000" font-family="sans-serif" font-size="14" lengthAdjust="spacingAndGlyphs" textLength="130" x="1067.5" y="510.5061">Notification Service</text><polygon fill="#A80036" points="321,118.7739,331,122.7739,321,126.7739,325,122.7739" style="stroke: #A80036; stroke-width: 1.0;"/><line style="stroke: #A80036; stroke-width: 1.0;" x1="66" x2="327" y1="122.7739" y2="122.7739"/><text fill="#000000" font-family="sans-serif" font-size="13" font-weight="bold" lengthAdjust="spacingAndGlyphs" textLength="7" x="78" y="116.9649">1</text><text fill="#000000" font-family="sans-serif" font-size="13" lengthAdjust="spacingAndGlyphs" textLength="232" x="89" y="116.9649">POST /dashboard/collection/payments</text><polygon fill="#A80036" points="581,150.4799,591,154.4799,581,158.4799,585,154.4799" style="stroke: #A80036; stroke-width: 1.0;"/><line style="stroke: #A80036; stroke-width: 1.0;" x1="333" x2="587" y1="154.4799" y2="154.4799"/><text fill="#000000" font-family="sans-serif" font-size="13" font-weight="bold" lengthAdjust="spacingAndGlyphs" textLength="7" x="345" y="148.6709">2</text><text fill="#000000" font-family="sans-serif" font-size="13" lengthAdjust="spacingAndGlyphs" textLength="225" x="356" y="148.6709">record_payment(student_id, amount)</text><polygon fill="#A80036" points="1009,182.186,1019,186.186,1009,190.186,1013,186.186" style="stroke: #A80036; stroke-width: 1.0;"/><line style="stroke: #A80036; stroke-width: 1.0;" x1="593" x2="1015" y1="186.186" y2="186.186"/><text fill="#000000" font-family="sans-serif" font-size="13" font-weight="bold" lengthAdjust="spacingAndGlyphs" textLength="7" x="729" y="180.377">3</text><text fill="#000000" font-family="sans-serif" font-size="13" lengthAdjust="spacingAndGlyphs" textLength="145" x="740" y="180.377">get_student(student_id)</text><polygon fill="#A80036" points="604,194.186,594,198.186,604,202.186,600,198.186" style="stroke: #A80036; stroke-width: 1.0;"/><line style="stroke: #A80036; stroke-width: 1.0; stroke-dasharray: 2.0,2.0;" x1="598" x2="1020" y1="198.186" y2="198.186"/><text fill="#000000" font-family="sans-serif" font-size="13" font-weight="bold" lengthAdjust="spacingAndGlyphs" textLength="7" x="778" y="213.083">4</text><text fill="#000000" font-family="sans-serif" font-size="13" lengthAdjust="spacingAndGlyphs" textLength="47" x="789" y="213.083">student</text><polygon fill="#A80036" points="764,245.598,774,249.598,764,253.598,768,249.598" style="stroke: #A80036; stroke-width: 1.0;"/><line style="stroke: #A80036; stroke-width: 1.0;" x1="593" x2="770" y1="249.598" y2="249.598"/><text fill="#000000" font-family="sans-serif" font-size="13" font-weight="bold" lengthAdjust="spacingAndGlyphs" textLength="7" x="605" y="243.789">5</text><text fill="#000000" font-family="sans-serif" font-size="13" lengthAdjust="spacingAndGlyphs" textLength="148" x="616" y="243.789">get_active_plan(student)</text><polygon fill="#A80036" points="604,257.598,594,261.598,604,265.598,600,261.598" style="stroke: #A80036; stroke-width: 1.0;"/><line style="stroke: #A80036; stroke-width: 1.0; stroke-dasharray: 2.0,2.0;" x1="598" x2="775" y1="261.598" y2="261.598"/><text fill="#000000" font-family="sans-serif" font-size="13" font-weight="bold" lengthAdjust="spacingAndGlyphs" textLength="7" x="666" y="276.495">6</text><text fill="#000000" font-family="sans-serif" font-size="13" lengthAdjust="spacingAndGlyphs" textLength="26" x="677" y="276.495">plan</text><polygon fill="#A80036" points="895,309.01,905,313.01,895,317.01,899,313.01" style="stroke: #A80036; stroke-width: 1.0;"/><line style="stroke: #A80036; stroke-width: 1.0;" x1="593" x2="901" y1="313.01" y2="313.01"/><text fill="#000000" font-family="sans-serif" font-size="13" font-weight="bold" lengthAdjust="spacingAndGlyphs" textLength="7" x="654" y="307.201">7</text><text fill="#000000" font-family="sans-serif" font-size="13" lengthAdjust="spacingAndGlyphs" textLength="181" x="665" y="307.201">apply_payment(plan, amount)</text><polygon fill="#A80036" points="604,321.01,594,325.01,604,329.01,600,325.01" style="stroke: #A80036; stroke-width: 1.0;"/><line style="stroke: #A80036; stroke-width: 1.0; stroke-dasharray: 2.0,2.0;" x1="598" x2="906" y1="325.01" y2="325.01"/><text fill="#000000" font-family="sans-serif" font-size="13" font-weight="bold" lengthAdjust="spacingAndGlyphs" textLength="7" x="682.5" y="339.907">8</text><text fill="#000000" font-family="sans-serif" font-size="13" lengthAdjust="spacingAndGlyphs" textLength="124" x="693.5" y="339.907">installment_updated</text><polygon fill="#A80036" points="1122.5,372.4221,1132.5,376.4221,1122.5,380.4221,1126.5,376.4221" style="stroke: #A80036; stroke-width: 1.0;"/><line style="stroke: #A80036; stroke-width: 1.0;" x1="593" x2="1128.5" y1="376.4221" y2="376.4221"/><text fill="#000000" font-family="sans-serif" font-size="13" font-weight="bold" lengthAdjust="spacingAndGlyphs" textLength="7" x="762.75" y="370.6131">9</text><text fill="#000000" font-family="sans-serif" font-size="13" lengthAdjust="spacingAndGlyphs" textLength="191" x="773.75" y="370.6131">send_payment_receipt(student)</text><polygon fill="#A80036" points="604,384.4221,594,388.4221,604,392.4221,600,388.4221" style="stroke: #A80036; stroke-width: 1.0;"/><line style="stroke: #A80036; stroke-width: 1.0; stroke-dasharray: 2.0,2.0;" x1="598" x2="1133.5" y1="388.4221" y2="388.4221"/><text fill="#000000" font-family="sans-serif" font-size="13" font-weight="bold" lengthAdjust="spacingAndGlyphs" textLength="14" x="841.75" y="403.3191">10</text><text fill="#000000" font-family="sans-serif" font-size="13" lengthAdjust="spacingAndGlyphs" textLength="26" x="859.75" y="403.3191">sent</text><polygon fill="#A80036" points="344,416.1281,334,420.1281,344,424.1281,340,420.1281" style="stroke: #A80036; stroke-width: 1.0;"/><line style="stroke: #A80036; stroke-width: 1.0; stroke-dasharray: 2.0,2.0;" x1="338" x2="592" y1="420.1281" y2="420.1281"/><text fill="#000000" font-family="sans-serif" font-size="13" font-weight="bold" lengthAdjust="spacingAndGlyphs" textLength="14" x="431.5" y="435.0251">11</text><text fill="#000000" font-family="sans-serif" font-size="13" lengthAdjust="spacingAndGlyphs" textLength="45" x="449.5" y="435.0251">success</text><polygon fill="#A80036" points="77,447.8341,67,451.8341,77,455.8341,73,451.8341" style="stroke: #A80036; stroke-width: 1.0;"/><line style="stroke: #A80036; stroke-width: 1.0; stroke-dasharray: 2.0,2.0;" x1="71" x2="332" y1="451.8341" y2="451.8341"/><text fill="#000000" font-family="sans-serif" font-size="13" font-weight="bold" lengthAdjust="spacingAndGlyphs" textLength="14" x="169.5" y="466.7311">12</text><text fill="#000000" font-family="sans-serif" font-size="13" lengthAdjust="spacingAndGlyphs" textLength="42" x="187.5" y="466.7311">200 OK</text><!--MD5=[2c7a979859ec8794861cb5ab02ea594a]
@startuml
skinparam responseMessageBelowArrow true
skinparam sequenceMessageAlign center
autonumber
actor "Collection Agent" as Agent
participant "Dashboard Collection API" as API
participant "Payment Service" as Service
database "PaymentPlan" as PlanDB
database "PaymentInstallement" as InstallmentDB
database "Student" as StudentDB
participant "Notification Service" as Notify

Agent -> API: POST /dashboard/collection/payments
API -> Service: record_payment(student_id, amount)
Service -> StudentDB: get_student(student_id)
StudentDB - -> Service: student
Service -> PlanDB: get_active_plan(student)
PlanDB - -> Service: plan
Service -> InstallmentDB: apply_payment(plan, amount)
InstallmentDB - -> Service: installment_updated
Service -> Notify: send_payment_receipt(student)
Notify - -> Service: sent
Service - -> API: success
API - -> Agent: 200 OK
@enduml

PlantUML version 1.2020.02(Sun Mar 01 12:22:07 CAT 2020)
(GPL source distribution)
Java Runtime: OpenJDK Runtime Environment
JVM: OpenJDK 64-Bit Server VM
Java Version: 21.0.10+7-Ubuntu-124.04
Operating System: Linux
Default Encoding: UTF-8
Language: en
Country: US
--></g></svg>
